<svg xmlns="http://www.w3.org/2000/svg" viewBox="0 0 32 32">
  <circle cx="16" cy="16" r="15" fill="#F7931A"/>
  <path fill="#FFF" d="M23.19 14.74c.32-2.01-1.22-3.12-3.35-3.85l.68-2.75-1.68-.42-.68 2.76c-.45-.11-.9-.21-1.35-.32l.69-2.76-1.68-.42-.69 2.77c-.36-.08-.71-.17-1.05-.25l-2.31-.58-.45 1.73s1.32.32 1.32.33c.72.17.83.65.78 1.01l-.8 3.35c-.05.37.14.58.52.67.15-.02.3-.05.46-.08l.56 2.41c-.1.02-.19.05-.32.08-1.93.46-2.54.28-3.01 2.19l-.85 3.41h1.79l.59-2.36c.39.09.77.17 1.14.25l-.57 2.38 1.68.42.85-3.41c.56.12 1.1.23 1.62.33l-.84 3.39 1.68.42.69-2.77c2.91.55 4.87.26 5.74-2.23.71-2.02-.03-3.18-1.79-4.02 1.26-.28 2.26-1.14 2.13-2.88zm-3.99 6.63c-.5 2.02-3.91.99-5.01.73l.89-3.59c1.1.26 4.53 1.17 4.22 2.86zm.52-6.65c-.46 1.77-3.26.87-4.17.65l.81-3.25c.91.22 3.75.89 3.36 2.6z"/>
</svg>
